<svg id="Capa_1" data-name="Capa 1" xmlns="http://www.w3.org/2000/svg" viewBox="0 0 315.4 68.3"><title>novy_logotip-03</title><polygon points="78.9 68.3 78.9 41.5 31.6 41.5 31.6 68.3 0 68.3 0 0 31.6 0 31.6 25 78.9 25 78.9 0 110.2 0 110.2 68.3 78.9 68.3"/><polygon points="116.6 68.3 116.6 0 147.9 0 147.9 48.5 200.3 48.5 200.3 68.3 116.6 68.3"/><path d="M205.6,68.3V0h56.8c35,0,53,10.8,53,32v3c0,14.3-5.5,33-53,33l-56.8.3ZM237,52.1h19c23.2,0,26.7-11.2,26.7-18v-.5c0-6.5-3.5-17.1-26.7-17.1H237Z"/></svg>