<?xml version="1.0" encoding="utf-8"?>
<!-- Generator: Adobe Illustrator 21.0.2, SVG Export Plug-In . SVG Version: 6.00 Build 0)  -->
<svg version="1.1" id="Capa_1" xmlns="http://www.w3.org/2000/svg" xmlns:xlink="http://www.w3.org/1999/xlink" x="0px" y="0px"
	 viewBox="0 0 741.5 171.5" style="enable-background:new 0 0 741.5 171.5;" xml:space="preserve">
<style type="text/css">
	.st0{fill:#0A0A0A;}
</style>
<g>
	<g>
		<path class="st0" d="M44.5,89.5c-0.7-0.5-0.2-1.4,0.5-1.4c11.5,0.7,64.3,3.7,91.3,15.9c26.2,11.8,74.6-6.2,90.3-12.7
			c0.8-0.2,1.4,0.7,0.7,1.4l-71.9,57.2c-1.4,1.2-2.9,1.5-4.4,1.5h-26c-1.5,0-3.4-0.5-4.4-1.5L44.5,89.5z"/>
		<g>
			<path class="st0" d="M256.8,69.6c0,0-7.1,5.6-10.1,7.9c-0.8,0.7-2,0.7-2.9,0L155,6.9c-0.8-0.7-0.5-2.2,0.7-2.2h26
				c2.4,0,4.9,0.8,6.6,2.2l70.9,54.5l0,0C261.9,64,259.2,67.4,256.8,69.6z"/>
			<path class="st0" d="M268.2,74v17.7c0,1.5-0.5,3-1.2,4.7c-0.7,1.5-1.7,3-3.4,4.2l-75.3,58.1c-2,1.5-4.2,2.2-6.6,2.2h-26
				c-1.2,0-1.5-1.4-0.7-2.2l2.4-1.7l93.2-74.1l11.8-9.3c0.2-0.2,0.7-0.7,0.8-0.8c2-2,3.5-4.9,1.4-7.1c1.4,1.2,2.2,2.4,2.9,3.7
				C267.8,71,268.2,72.3,268.2,74z"/>
		</g>
		<g>
			<path class="st0" d="M19.3,96.1c0,0,7.1-5.6,10.1-7.9c0.8-0.7,2-0.7,2.9,0l88.8,70.7c0.8,0.7,0.5,2.2-0.7,2.2H94.6
				c-2.4,0-4.9-0.8-6.6-2.2l-70.9-55l0,0C14.4,101.5,16.8,98.1,19.3,96.1z"/>
			<path class="st0" d="M8,91.7V74c0-1.5,0.5-3,1.2-4.7s1.7-3,3.4-4.2L87.7,7.2c2-1.5,4.2-2.2,6.6-2.2h26c1.2,0,1.5,1.4,0.7,2.2
				l-2.2,1.5L25.8,83L14,92.3c-0.2,0.2-0.7,0.7-0.8,0.8c-2,2-3.5,4.9-1.4,7.1c-1.4-1.2-2.2-2.4-2.9-3.7C8.2,94.9,8,93.3,8,91.7z"/>
		</g>
	</g>
</g>
<g>
	<polygon class="st0" points="446.1,129.6 446.1,97.1 388.8,97.1 388.8,129.6 350.7,129.6 350.7,46.8 388.8,46.8 388.8,77.1 
		446.1,77.1 446.1,46.8 484.2,46.8 484.2,129.6 	"/>
	<polygon class="st0" points="491.9,129.6 491.9,46.8 530,46.8 530,105.6 593.3,105.6 593.3,129.6 	"/>
	<path class="st0" d="M599.8,129.6V46.9h68.8c42.6,0,64.2,13.1,64.2,38.9v3.8c0,17.2-6.7,40-64.2,40L599.8,129.6L599.8,129.6z
		 M637.9,109.9h22.9c28.1,0,32.3-13.6,32.3-21.7v-0.7c0-7.8-4.2-20.8-32.3-20.8h-22.9V109.9z"/>
</g>
<text transform="matrix(1 0 0 1 1179.624 -3835.7891)" style="font-family:'ArialMT'; font-size:12px;"> </text>
<text transform="matrix(1 0 0 1 1179.624 -3835.7891)" style="font-family:'ArialMT'; font-size:12px;"> </text>
</svg>
